<svg version="1.1" xmlns="http://www.w3.org/2000/svg" style="display: block;" viewBox="0 0 2048 2048" width="1024" height="1024" preserveAspectRatio="none">
<defs>
	<linearGradient id="Gradient1" gradientUnits="userSpaceOnUse" x1="340.157" y1="903.793" x2="477.555" y2="1253.3">
		<stop class="stop0" offset="0" stop-opacity="1" stop-color="rgb(44,140,173)"/>
		<stop class="stop1" offset="1" stop-opacity="1" stop-color="rgb(67,133,185)"/>
	</linearGradient>
</defs>
<path transform="translate(0,0)" fill="url(#Gradient1)" d="M 336.94 904.255 C 347.464 904.217 382.262 902.088 391.202 907.347 C 393.993 908.988 393.929 917.59 394.048 921.22 L 475.299 921.057 C 490.257 921.041 515.411 920.281 529.54 922.495 C 540.221 924.161 550.531 927.669 560.012 932.863 C 582.383 945.059 593.702 962.412 600.895 986.264 C 607.526 986.125 620.269 984.818 621.451 993.476 C 623.28 1006.88 625.574 1042.84 619.431 1053.84 C 614.514 1057.33 597.573 1056.01 590.832 1055.9 C 576.862 1085.85 552.478 1116.85 540.301 1147.8 C 539.413 1150.05 538.885 1158.06 538.686 1160.86 C 540.361 1160.7 542.038 1160.58 543.719 1160.49 C 547.812 1160.33 549.21 1160.68 552.243 1163.48 C 556.345 1172.33 557.566 1220.96 550.863 1226.54 C 541.287 1230.21 500.506 1230.48 491.169 1226.87 C 486.437 1222.17 487.086 1218.34 486.895 1211.78 C 467.996 1210.72 442.837 1211.39 423.443 1211.41 L 310.982 1211.51 C 289.39 1211.53 263.717 1212.6 242.551 1209.84 C 233.009 1208.59 221.723 1201.83 214.666 1195.04 C 203.438 1184.1 197.069 1169.12 196.987 1153.45 C 196.924 1137.63 202.515 1121.52 213.938 1110.44 C 235.103 1089.9 255.203 1092.04 282.195 1092.24 C 296.746 1092.4 311.298 1092.46 325.85 1092.42 C 325.925 1085.68 325.244 1082.03 329.708 1076.98 C 338.695 1073.22 380.184 1073.55 389.776 1077.2 C 397.078 1083.85 392.67 1092.63 393.529 1100.36 C 399.791 1156.73 383.885 1140.82 339.167 1143.4 C 329.291 1143.97 326.823 1135.23 326.547 1126.18 C 304.301 1126.04 278.01 1124.95 255.899 1126.51 C 234.43 1128.02 223.466 1152.89 240.044 1170.68 C 243.129 1173.95 247.163 1176.16 251.574 1177 C 258.579 1178.41 279.985 1178.01 287.782 1177.98 L 347.75 1177.8 C 390.36 1177.9 443.628 1179.28 485.696 1177.47 C 487.974 1161.59 488.621 1160.79 504.749 1161.02 C 505.053 1136.05 511.779 1124.88 524.225 1103.48 C 534.267 1086.22 545.377 1068.26 554.74 1050.68 C 553.256 1033.92 553.446 1007.53 556.068 991.083 C 556.305 989.597 561.509 987.811 563.426 985.657 C 558.665 974.053 541.893 959.609 529.384 957.212 C 512.951 954.063 492.87 955.216 475.908 955.249 C 448.361 955.248 420.814 955.394 393.269 955.689 C 393.352 962.015 394.153 965.98 390.209 970.943 C 382.362 974.281 341.404 974.317 331.314 971.017 C 328.866 970.217 327.259 965.034 326.535 962.447 L 324.765 956.207 C 298.965 949.005 281.693 997.377 315.149 1005.19 C 328.317 1008.27 339.139 1007.08 352.386 1006.97 C 374.339 1006.76 396.293 1006.66 418.247 1006.68 C 434.101 1006.58 464.562 1005.18 478.812 1009.18 C 488.103 1011.83 496.575 1016.78 503.444 1023.58 C 515.231 1034.84 521.889 1050.44 521.865 1066.74 C 521.927 1092.6 504.445 1115.11 480.078 1123.08 C 468.669 1126.81 456.31 1126.18 444.453 1126.12 L 410.126 1125.86 L 410.016 1092.1 C 429.52 1092.02 467.532 1097.23 481.504 1082.61 C 488.844 1074.2 489.081 1058.67 481.417 1050.59 C 469.548 1038.07 449.143 1040.82 433.142 1040.86 L 360.141 1041.19 C 343.851 1041.26 324.572 1042.42 308.672 1039.19 C 283.367 1033.59 264.721 1015.27 262.917 988.667 C 260.163 948.071 286.674 923.517 325.744 921.812 C 326.358 910.703 325.763 907.268 336.94 904.255 z M 574.087 1036.06 C 578.855 1036.08 600.996 1036.9 603.34 1035.28 L 603.471 1034.93 L 603.398 1006.67 L 573.836 1006.92 L 574.087 1036.06 z M 506.053 1209.7 C 514.926 1209.54 524.322 1209.21 533.152 1209.37 L 534.737 1208.39 C 535.574 1200.04 535.115 1188.56 535.074 1179.95 L 506.464 1180.01 C 506.643 1189.35 507.076 1200.55 506.053 1209.7 z M 345.852 1094.98 C 345.815 1104.65 345.848 1114.32 345.949 1123.99 L 374.064 1123.98 C 374.021 1114.33 374.034 1104.67 374.104 1095.02 C 364.687 1094.84 355.269 1094.83 345.852 1094.98 z M 374.263 923.439 L 364.188 923.503 L 345.3 923.883 C 345.355 933.249 345.634 943.534 345.402 952.822 L 355.75 952.794 L 374.052 952.651 L 374.263 923.439 z"/>
<path transform="translate(0,0)" fill="rgb(26,145,162)" d="M 1630.55 956.184 C 1651.8 955.827 1673.02 955.752 1694.68 955.912 C 1716.26 956.07 1752.82 949.849 1755.95 980.62 C 1756.83 997.428 1756.97 1014.67 1756.75 1031.54 C 1756.5 1050.49 1760.42 1067.99 1748.2 1083.78 C 1735.49 1095.24 1710.11 1092.11 1693.43 1092.09 L 1630.84 1091.96 C 1630.19 1075.91 1630.6 1056.68 1630.53 1040.41 C 1630.28 1012.34 1630.29 984.26 1630.55 956.184 z M 1657.2 1065.03 C 1667.83 1065.06 1721.89 1066.53 1729.09 1064.38 C 1730.04 1060.06 1729.79 1059.01 1729.49 1054.5 C 1729.63 1030.36 1729.08 1006.42 1729.17 982.37 C 1708.31 982.422 1677.25 983.428 1657.18 982.265 C 1657.51 1009.85 1657.52 1037.44 1657.2 1065.03 z"/>
<path transform="translate(0,0)" fill="rgb(57,62,65)" d="M 819.708 955.872 C 848.398 956.42 878.24 955.662 906.597 955.771 C 939.252 955.457 948.728 966.142 947.599 997.848 C 946.747 1021.76 951.632 1040.7 919.058 1045.69 C 925.054 1053.79 948.847 1083.46 948.489 1091.24 C 945.929 1092.9 931.348 1092.45 927.354 1092.5 C 926.011 1092.5 919.408 1092.49 918.579 1091.47 C 906.889 1077.01 896.261 1061.23 885.693 1045.9 L 846.991 1046.01 C 847.219 1061.38 847.254 1076.75 847.098 1092.11 L 819.927 1092.21 C 818.773 1074.68 819.358 1053.09 819.359 1035.15 C 819.206 1008.72 819.322 982.295 819.708 955.872 z M 846.985 1019.32 C 871.336 1018.74 895.891 1019.9 920.01 1019.1 L 920.142 982.795 C 900.707 982.629 864.881 984.074 847.173 982.427 C 846.773 994.731 846.924 1007.02 846.985 1019.32 z"/>
<path transform="translate(0,0)" fill="rgb(57,62,65)" d="M 990.398 956.241 C 991.789 956.161 993.181 956.096 994.574 956.044 C 1005.79 955.619 1018.58 956.365 1029.59 955.922 C 1096.17 953.247 1094.52 960.926 1094.18 1020.69 L 1094.16 1092.02 L 1067.08 1092.01 L 1067.01 1048.92 L 1066.82 1048 C 1064.8 1046.87 1001.84 1047.34 994.739 1047.33 L 994.96 1092.5 C 986.267 1092.27 976.09 1092.2 967.469 1092.63 C 965.94 1057.43 967.225 1019.82 967.47 984.451 C 967.571 969.838 976.186 960.068 990.398 956.241 z M 994.782 1020.6 C 1011.8 1020.57 1050.52 1019.44 1065.74 1020.82 C 1068.04 1018.11 1066.92 988.158 1066.85 982.539 C 1046.51 982.054 1013.49 983.899 995.371 982.393 C 994.318 988.849 994.818 1012.7 994.782 1020.6 z"/>
<path transform="translate(0,0)" fill="rgb(26,145,162)" d="M 299.152 836.491 L 343.314 836.504 C 343.363 847.689 343.106 859.212 342.988 870.425 C 330.268 869.396 307.889 869.968 294.57 870.176 C 284.352 886.423 273.841 905.652 263.617 923.186 C 250.019 946.507 232.817 972.586 222.074 997.195 C 221.152 999.305 221.999 1011.33 221.817 1014.65 C 219.89 1049.92 221.735 1050.91 238.145 1080.04 C 228.413 1083.04 224.408 1085.21 216.166 1090.87 C 213.004 1093.29 211.599 1094.78 208.01 1094.53 C 204.627 1090.65 191.248 1067.71 186.919 1061.05 C 177.293 1060.56 165.862 1062.36 157.208 1058.85 C 151.119 1053.61 151.646 1002.1 156.35 994.654 C 163.585 990.606 175.37 991.944 184.062 992.115 C 214.216 942.784 240.666 889.905 273.125 842.016 C 277.398 835.713 292.655 836.512 299.152 836.491 z M 172.381 1040.89 C 182.212 1040.77 192.044 1040.71 201.876 1040.72 L 201.888 1012.09 C 191.549 1011.68 182.483 1011.72 172.179 1011.87 C 172.19 1021.43 172.06 1031.36 172.381 1040.89 z"/>
<path transform="translate(0,0)" fill="rgb(26,145,162)" d="M 520.934 802.126 C 524.172 804.308 529.922 807.286 533.493 809.301 C 558.518 823.419 583.258 839.481 608.614 852.854 C 581.242 869.173 548.714 889.122 521.039 904.377 L 520.831 869.988 C 494.389 870.392 467.942 870.412 441.5 870.049 L 427.893 870.268 C 427.318 876.832 427.674 880.393 423.293 885.006 C 414.237 888.669 372.785 888.732 363.267 885.033 C 356.977 879.021 357.959 829.673 362.022 821.769 C 364.339 820.142 366.834 818.754 369.93 818.901 C 384.754 819.892 400.337 817.142 415.012 818.545 C 426.286 819.623 426.815 827.989 426.768 836.59 C 455.629 835.63 492.062 836.255 521.009 836.588 C 520.672 825.627 520.935 813.198 520.934 802.126 z M 379.111 867.478 C 388.007 867.435 398.496 867.122 407.261 867.64 C 408.585 862.545 408.057 845.039 408.015 838.762 L 379.095 838.976 L 379.111 867.478 z"/>
<path transform="translate(0,0)" fill="rgb(26,145,162)" d="M 1310.27 956.174 C 1311.69 956.093 1313.11 956.026 1314.53 955.97 C 1328.33 955.42 1342.65 955.737 1356.41 955.55 C 1391.5 955.072 1415.46 951.924 1414.98 995.774 L 1387.92 995.498 L 1388 982.288 C 1370.91 983.276 1331.39 982.986 1314.11 982.334 C 1315.84 1005.42 1314.26 1040.67 1314.25 1064.93 L 1386.98 1065.02 C 1386.77 1057.81 1389.48 1045.99 1384.61 1041.06 L 1378.48 1041.03 L 1359.08 1040.94 L 1359.17 1014.29 L 1414.78 1014.17 C 1414.86 1030.86 1417.53 1060.98 1411.97 1075.79 C 1409.53 1082.29 1406.05 1085.55 1399.7 1088.32 C 1386.08 1094.25 1316.78 1093.97 1303.88 1088.69 C 1297.4 1086.04 1293.36 1082.98 1290.68 1076.47 C 1288.75 1071.79 1287.75 1066.82 1287.27 1061.8 C 1285.92 1047.6 1285.19 981.866 1289.91 971.917 C 1293.92 963.474 1301.73 959.005 1310.27 956.174 z"/>
<path transform="translate(0,0)" fill="rgb(26,145,162)" d="M 1777.6 955.996 C 1813.79 954.899 1858.64 955.172 1895.01 955.745 L 1894.95 982.754 C 1887.01 982.143 1873.15 982.711 1864.73 982.713 L 1804.38 982.66 L 1804.18 1010 C 1828.43 1009.84 1852.68 1009.85 1876.93 1010.01 L 1876.94 1037.01 L 1804.45 1037.07 C 1804.61 1045.77 1804.96 1054.82 1804.38 1063.48 L 1805.02 1064.7 C 1822.05 1066.78 1855.29 1063.7 1873.55 1064.86 C 1880.56 1065.3 1888.44 1064.37 1895.93 1065.6 C 1894.28 1070.33 1894.92 1086.31 1894.96 1092.18 L 1777.75 1091.96 C 1778.19 1048.03 1778.41 999.806 1777.6 955.996 z"/>
<path transform="translate(0,0)" fill="rgb(26,145,162)" d="M 1436.1 956.065 L 1463.05 955.927 L 1463.01 1064.89 C 1486.84 1065.39 1510.6 1064.75 1534.63 1065.46 L 1534.61 956.193 L 1561.16 955.948 L 1561.12 985.25 C 1560.6 1012.71 1562.61 1042.67 1559.93 1069.72 C 1556.85 1100.87 1511.26 1090.83 1491.03 1092.32 C 1431.29 1096.74 1435.73 1075.74 1435.99 1028.48 C 1436.27 1004.34 1436.31 980.202 1436.1 956.065 z"/>
<path transform="translate(0,0)" fill="rgb(57,62,65)" d="M 678.98 955.959 C 720.323 955.289 763.773 955.998 805.247 956.104 C 805.241 964.992 805.184 973.88 805.074 982.767 C 790.073 982.144 771.132 982.079 756.213 982.82 C 756.452 1004.13 756.428 1025.44 756.138 1046.75 C 755.952 1062.02 756.129 1077.3 756.668 1092.56 C 747.406 1092.43 738.141 1092.51 728.882 1092.79 C 731.236 1060.91 729.562 1014.99 729.354 982.252 L 679.423 982.752 C 679.373 974.169 680.023 964.37 678.98 955.959 z"/>
<path transform="translate(0,0)" fill="rgb(57,62,65)" d="M 1163.13 956.056 L 1190.84 955.982 L 1190.75 1026.7 C 1190.73 1038.22 1191.14 1053.76 1190.35 1064.96 L 1274.99 1065.02 C 1274.41 1073.32 1274.47 1081.94 1274.4 1090.28 L 1274.33 1091.1 C 1270.41 1093.36 1176.11 1092.03 1163.24 1092.03 C 1162.39 1047.07 1163.65 1001.12 1163.13 956.056 z"/>
<path transform="translate(0,0)" fill="rgb(26,145,162)" d="M 1582.61 956.073 C 1591.25 956.341 1600.89 956.165 1609.61 956.202 C 1609.95 1000.99 1609.02 1046.09 1609.75 1090.8 L 1609.07 1091.73 C 1602.31 1092.53 1590.02 1092.06 1582.82 1091.99 C 1582.56 1085.03 1582.62 1077.63 1582.71 1070.64 C 1583.2 1032.6 1581.52 994.067 1582.61 956.073 z"/>
<path transform="translate(0,0)" fill="rgb(57,62,65)" d="M 1115.96 956.07 C 1124.53 956.348 1134.35 956.087 1143.01 956.063 C 1142.45 1001.39 1142.45 1046.73 1142.99 1092.06 L 1116.1 1091.99 C 1115.49 1047.53 1117.32 999.897 1115.96 956.07 z"/>
</svg>